<svg xmlns="http://www.w3.org/2000/svg" viewBox="0 0 24 24" fill="#00A8E1">
  <path d="M1.04 17.52c-.07-.12-.17-.2-.2-.32-.15-.77.34-1.17.91-1.52.87-.55 1.83-.9 2.78-1.25 2.77-1 5.6-1.72 8.52-2.04 2.41-.27 4.83-.33 7.24-.04 1.19.14 2.35.4 3.43.88.5.22.97.5 1.26 1 .37.62.12 1.17-.55 1.4-.5.17-1.02.25-1.55.34-1.55.25-3.1.45-4.66.57-2.8.21-5.6.21-8.39-.06-2.09-.2-4.17-.5-6.2-1.08-.54-.15-1.07-.35-1.58-.52L1.04 17.52z"/>
  <path d="M20.04 18.55c.12.36.04.63-.13.89-.39.58-.87 1.08-1.41 1.5-.62.48-1.27.93-1.93 1.36-.17.1-.41.15-.53-.05-.1-.18.02-.34.16-.46.54-.43 1.09-.85 1.5-1.41.21-.28.39-.59.53-.92.1-.24.21-.48.32-.72.13-.3.37-.41.63-.39.32.03.57.2.66.54l.2.66z"/>
  <path d="M7.93 12.97c-1.03-.1-2.05-.27-3.06-.52-.53-.14-.97-.47-1.13-1.01-.25-.84.1-1.48.82-1.91.87-.53 1.84-.73 2.82-.79 1.34-.08 2.68-.07 4 .21.62.13 1.21.33 1.68.76.42.39.55.84.29 1.35-.19.37-.52.58-.89.73-.93.38-1.9.59-2.9.74-.87.13-1.75.2-2.63.44z"/>
  <path d="M11.05 10.24c0-.5.15-.93.49-1.3.67-.7 1.54-.98 2.47-1.1 1.13-.15 2.25-.15 3.34.17.53.16.97.45 1.24.96.38.72.03 1.43-.77 1.64-1.07.28-2.16.37-3.26.38-1.06.01-2.1-.1-3.12-.37-.2-.06-.39-.15-.39-.38z"/>
  <path d="M14.02 6.93c0-.37.13-.66.41-.89.68-.55 1.49-.72 2.33-.73.78 0 1.54.1 2.24.43.43.2.74.51.78 1.01.04.53-.26.9-.73 1.1-.79.34-1.63.42-2.48.38-.67-.03-1.33-.12-1.96-.35-.35-.13-.59-.37-.59-.95z"/>
</svg>
